<?xml version="1.0" encoding="UTF-8" standalone="no"?>
<svg width="256px" height="256px" viewBox="0 0 256 256" version="1.1" xmlns="http://www.w3.org/2000/svg" xmlns:xlink="http://www.w3.org/1999/xlink" xmlns:sketch="http://www.bohemiancoding.com/sketch/ns">
    <!-- Generator: Sketch 3.5.2 (25235) - http://www.bohemiancoding.com/sketch -->
    <title>favicon</title>
    <desc>Created with Sketch.</desc>
    <defs>
        <linearGradient x1="0%" y1="0%" x2="100%" y2="100%" id="linearGradient-1">
            <stop stop-color="#0C8CFF" offset="0%"></stop>
            <stop stop-color="#1DF3C6" offset="100%"></stop>
        </linearGradient>
    </defs>
    <g id="Page-1" stroke="none" stroke-width="1" fill="none" fill-rule="evenodd" sketch:type="MSPage">
        <g id="favicon" sketch:type="MSArtboardGroup">
            <g id="Group" sketch:type="MSLayerGroup" transform="translate(59.000000, 0.000000)">
                <rect id="Rectangle-1" fill="url(#linearGradient-1)" sketch:type="MSShapeGroup" x="0" y="0" width="138.847458" height="256"></rect>
                <rect id="Rectangle-2" stroke="#FFFFFF" stroke-width="3.09927361" sketch:type="MSShapeGroup" x="9.29782082" y="7.43825666" width="120.251816" height="241.743341"></rect>
                <path d="M68.4839487,64.4516404 L89.3909852,15.2881356 L119.202871,15.2881356 L119.202871,85.9515738 L96.4890531,85.9515738 L96.4890531,69.4504962 L98.6830014,35.6718197 L75.9691839,85.9515738 L60.9987134,85.9515738 L38.220368,35.6232871 L40.4143163,69.4504962 L40.4143163,85.9515738 L17.7650268,85.9515738 L17.7650268,15.2881356 L47.5123843,15.2881356 L68.4839487,64.4516404 Z M68.4839487,134.99137 L89.3909852,92.1501211 L119.202871,92.1501211 L119.202871,153.726487 L96.4890531,153.726487 L96.4890531,139.34739 L98.6830014,109.912534 L75.9691839,153.726487 L60.9987134,153.726487 L38.220368,109.870243 L40.4143163,139.34739 L40.4143163,153.726487 L17.7650268,153.726487 L17.7650268,92.1501211 L47.5123843,92.1501211 L68.4839487,134.99137 Z M58.1648766,214.330716 L58.1648766,244.017044 L35.7408137,244.017044 L35.7408137,159.925034 L72.3476173,159.925034 C83.3786929,159.925034 92.0032463,162.138973 98.221536,166.566917 C104.439826,170.994861 107.548924,177.251644 107.548924,185.337455 C107.548924,191.190041 106.23927,196.041455 103.619922,199.891841 C101.000573,203.742227 96.9012487,206.860993 91.3218244,209.248232 L110.743235,243.150711 L110.743235,244.017044 L86.7220166,244.017044 L70.3032583,214.330716 L58.1648766,214.330716 Z M69.2815017,193.849879 C73.5833826,193.849879 76.8204994,193.251368 78.9929492,192.054328 C81.1653991,190.857288 82.2516077,189.187158 82.2516077,187.043886 C82.2516077,184.900615 81.1546445,183.219084 78.9606853,181.999243 C76.7667261,180.779403 73.5403638,180.169492 69.2815017,180.169492 L54.9563101,180.169492 L54.9563101,193.849879 L69.2815017,193.849879 Z" id="M" fill="#FFFFFF" sketch:type="MSShapeGroup"></path>
            </g>
        </g>
    </g>
</svg>