<?xml version="1.0" encoding="UTF-8" standalone="no"?>
<svg width="224px" height="413px" viewBox="0 0 224 413" version="1.1" xmlns="http://www.w3.org/2000/svg" xmlns:xlink="http://www.w3.org/1999/xlink" xmlns:sketch="http://www.bohemiancoding.com/sketch/ns">
    <!-- Generator: Sketch 3.5.2 (25235) - http://www.bohemiancoding.com/sketch -->
    <title>logo_mmr</title>
    <desc>Created with Sketch.</desc>
    <defs>
        <linearGradient x1="0%" y1="0%" x2="100%" y2="100%" id="linearGradient-1">
            <stop stop-color="#0C8CFF" offset="0%"></stop>
            <stop stop-color="#1DF3C6" offset="100%"></stop>
        </linearGradient>
    </defs>
    <g id="Page-1" stroke="none" stroke-width="1" fill="none" fill-rule="evenodd" sketch:type="MSPage">
        <g id="logo_mmr" sketch:type="MSArtboardGroup">
            <rect id="Rectangle-1" fill="url(#linearGradient-1)" sketch:type="MSShapeGroup" x="0" y="0" width="224" height="413"></rect>
            <rect id="Rectangle-2" stroke="#FFFFFF" stroke-width="5" sketch:type="MSShapeGroup" x="15" y="12" width="194" height="390"></rect>
            <path d="M110.48387,103.978623 L144.2128,24.6640625 L192.307756,24.6640625 L192.307756,138.664062 L155.66398,138.664062 L155.66398,112.043183 L159.203436,57.5486779 L122.55966,138.664062 L98.4080805,138.664062 L61.6602031,57.4703812 L65.1996587,112.043183 L65.1996587,138.664062 L28.6599846,138.664062 L28.6599846,24.6640625 L76.6508387,24.6640625 L110.48387,103.978623 Z M110.48387,217.779046 L144.2128,148.664062 L192.307756,148.664062 L192.307756,248.004059 L155.66398,248.004059 L155.66398,224.806532 L159.203436,177.319831 L122.55966,248.004059 L98.4080805,248.004059 L61.6602031,177.251603 L65.1996587,224.806532 L65.1996587,248.004059 L28.6599846,248.004059 L28.6599846,148.664062 L76.6508387,148.664062 L110.48387,217.779046 Z M93.8363049,345.775726 L93.8363049,393.668121 L57.6599846,393.668121 L57.6599846,258.004059 L116.717054,258.004059 C134.513282,258.004059 148.427112,261.575765 158.458962,268.719284 C168.490813,275.862802 173.506663,285.956754 173.506663,299.00144 C173.506663,308.443309 171.393822,316.270003 167.168077,322.481759 C162.942331,328.693514 156.328968,333.724961 147.327787,337.576249 L178.659985,392.270483 L178.659985,393.668121 L139.907003,393.668121 L113.418928,345.775726 L93.8363049,345.775726 Z M111.770548,312.734375 C118.710691,312.734375 123.933071,311.768808 127.437844,309.837646 C130.942617,307.906484 132.694977,305.212094 132.694977,301.754395 C132.694977,298.296695 130.925266,295.583913 127.385793,293.615967 C123.84632,291.648021 118.64129,290.664062 111.770548,290.664062 L88.6599846,290.664062 L88.6599846,312.734375 L111.770548,312.734375 Z" id="M" fill="#FFFFFF" sketch:type="MSShapeGroup"></path>
        </g>
    </g>
</svg>